<?xml version="1.0" encoding="utf-8"?>
<svg xmlns="http://www.w3.org/2000/svg" style="margin: auto; display: block; shape-rendering: auto; background: none;" width="286" height="250" preserveAspectRatio="xMidYMid">
<style type="text/css">
  text {
    text-anchor: middle; font-size: 80px; opacity: 0;
  }
</style>
<g style="transform-origin:143px 125px;transform:scale(1)">
<g transform="translate(143,125)">
  <g transform="translate(0,0)"><g class="path" style="transform: scale(0.91); transform-origin: -126.36px -5.12712px; animation: 1s linear -0.6s infinite normal forwards running breath-827549ea-05f5-4ce9-968d-a8e5578694eb;"><path d="M32.72 0L6.40 0L7.36-19.44L6.40-53.60L17.76-55.60L16.64-20.80L17.20-7.84L33.60-9.12L32.72 0" fill="#93dbe9" stroke="none" stroke-width="none" transform="translate(-146.3599853515625,22.67287218960849)" style="fill: rgb(147, 219, 233);"></path></g><g class="path" style="transform: scale(0.91); transform-origin: -93px 2.51287px; animation: 1s linear -0.54s infinite normal forwards running breath-827549ea-05f5-4ce9-968d-a8e5578694eb;"><path d="M36.32-16.72L36.32-16.72Q36.32-26.96 41.84-34.08L41.84-34.08L41.84-34.08Q47.36-41.20 54.76-41.20L54.76-41.20L54.76-41.20Q62.16-41.20 66.28-36.40L66.28-36.40L66.28-36.40Q70.40-31.60 70.40-23.68L70.40-23.68L70.40-23.68Q70.40-13.12 65.08-6.12L65.08-6.12L65.08-6.12Q59.76 0.88 51.68 0.88L51.68 0.88L51.68 0.88Q45.04 0.88 40.68-4.12L40.68-4.12L40.68-4.12Q36.32-9.12 36.32-16.72L36.32-16.72zM61.44-19.52L61.44-19.52L61.44-19.52Q61.44-31.12 53.52-31.12L53.52-31.12L53.52-31.12Q45.28-31.12 45.28-20.24L45.28-20.24L45.28-20.24Q45.28-14.56 47.60-11.36L47.60-11.36L47.60-11.36Q49.92-8.16 53.72-8.16L53.72-8.16L53.72-8.16Q57.52-8.16 59.48-11.08L59.48-11.08L59.48-11.08Q61.44-14 61.44-19.52" fill="#93dbe9" stroke="none" stroke-width="none" transform="translate(-146.3599853515625,22.67287218960849)" style="fill: rgb(104, 156, 197);"></path></g><g class="path" style="transform: scale(0.91); transform-origin: -55.16px 2.19287px; animation: 1s linear -0.48s infinite normal forwards running breath-827549ea-05f5-4ce9-968d-a8e5578694eb;"><path d="M85.28 0L85.28 0Q80.56 0 77.56-3L77.56-3L77.56-3Q74.56-6 74.56-11.08L74.56-11.08L74.56-11.08Q74.56-16.16 79.20-19.88L79.20-19.88L79.20-19.88Q83.84-23.60 90.48-23.60L90.48-23.60L95.92-23.60L95.92-24.96L95.92-24.96Q95.92-28.88 94.32-30.32L94.32-30.32L94.32-30.32Q92.72-31.76 88.32-31.76L88.32-31.76L88.32-31.76Q86.48-31.76 83.96-31L83.96-31L83.96-31Q81.44-30.24 78.32-28.64L78.32-28.64L76-34.96L76-34.96Q79.44-37.36 84.36-39.28L84.36-39.28L84.36-39.28Q89.28-41.20 92.48-41.20L92.48-41.20L92.48-41.20Q105.04-41.20 105.04-29.04L105.04-29.04L105.04-13.36L105.04-13.36Q105.04-8.88 107.84-3.36L107.84-3.36L99.36 0.24L99.36 0.24Q97.36-3.60 96.40-6.64L96.40-6.64L96.40-6.64Q92 0 85.28 0L85.28 0zM88.64-8.16L88.64-8.16L88.64-8.16Q91.84-8.16 95.92-11.44L95.92-11.44L95.92-16.80L95.92-16.80Q91.68-17.76 89.04-17.76L89.04-17.76L89.04-17.76Q84-17.76 84-13.28L84-13.28L84-13.28Q84-10.96 85.28-9.56L85.28-9.56L85.28-9.56Q86.56-8.16 88.64-8.16" fill="#93dbe9" stroke="none" stroke-width="none" transform="translate(-146.3599853515625,22.67287218960849)" style="fill: rgb(94, 111, 163);"></path></g><g class="path" style="transform: scale(0.91); transform-origin: -16.68px -7.84712px; animation: 1s linear -0.42s infinite normal forwards running breath-827549ea-05f5-4ce9-968d-a8e5578694eb;"><path d="M135.92-7.84L135.92-7.84L135.92-7.84Q129.68 0 125.12 0L125.12 0L125.12 0Q119.44 0 115.80-4.64L115.80-4.64L115.80-4.64Q112.16-9.28 112.16-16.56L112.16-16.56L112.16-16.56Q112.16-26.56 117.72-33.44L117.72-33.44L117.72-33.44Q123.28-40.32 131.36-40.32L131.36-40.32L135.84-39.68L135.84-41.20L134.88-59.92L145.84-61.92L144.80-20.80L144.80-13.76L144.80-13.76Q144.80-8.96 147.20-2.72L147.20-2.72L138.56 0.88L138.56 0.88Q136.24-3.92 135.92-7.84zM121.12-20.72L121.12-20.72L121.12-20.72Q121.12-15.60 123-12.72L123-12.72L123-12.72Q124.88-9.84 128.44-9.84L128.44-9.84L128.44-9.84Q132-9.84 135.84-12.72L135.84-12.72L135.84-30L135.84-30Q131.04-30.96 128.72-30.96L128.72-30.96L128.72-30.96Q125.12-30.96 123.12-28.40L123.12-28.40L123.12-28.40Q121.12-25.84 121.12-20.72" fill="#93dbe9" stroke="none" stroke-width="none" transform="translate(-146.3599853515625,22.67287218960849)" style="fill: rgb(59, 67, 104);"></path></g><g class="path" style="transform: scale(0.91); transform-origin: 13.92px 2.31287px; animation: 1s linear -0.36s infinite normal forwards running breath-827549ea-05f5-4ce9-968d-a8e5578694eb;"><path d="M154.96-38.72L165.68-40.72L164.72-20.80L165.60-2L154.88 0L155.84-19.44L154.96-38.72" fill="#93dbe9" stroke="none" stroke-width="none" transform="translate(-146.3599853515625,22.67287218960849)" style="fill: rgb(25, 29, 58);"></path></g><g class="path" style="transform: scale(0.91); transform-origin: 14.28px -30.1271px; animation: 1s linear -0.3s infinite normal forwards running breath-827549ea-05f5-4ce9-968d-a8e5578694eb;"><path d="M154.40-52.44L154.40-52.44L154.40-52.44Q154.40-55.12 156.48-57.24L156.48-57.24L156.48-57.24Q158.56-59.36 161.28-59.36L161.28-59.36L161.28-59.36Q164-59.36 165.44-57.88L165.44-57.88L165.44-57.88Q166.88-56.40 166.88-53.44L166.88-53.44L166.88-53.44Q166.88-50.48 164.84-48.36L164.84-48.36L164.84-48.36Q162.80-46.24 160.12-46.24L160.12-46.24L160.12-46.24Q157.44-46.24 155.92-48L155.92-48L155.92-48Q154.40-49.76 154.40-52.44" fill="#93dbe9" stroke="none" stroke-width="none" transform="translate(-146.3599853515625,22.67287218960849)" style="fill: rgb(217, 219, 238);"></path></g><g class="path" style="transform: scale(0.91); transform-origin: 44.2px 2.51287px; animation: 1s linear -0.24s infinite normal forwards running breath-827549ea-05f5-4ce9-968d-a8e5578694eb;"><path d="M197.68-20.24L197.68-20.24Q197.68-25.76 196.72-27.60L196.72-27.60L196.72-27.60Q195.76-29.44 192.24-29.44L192.24-29.44L192.24-29.44Q188.72-29.44 184.24-26.64L184.24-26.64L184.24-20.80L185.12-2L174.40 0L175.36-19.44L175.36-19.44Q175.04-30.16 173.60-38.64L173.60-38.64L183.28-40.72L183.28-40.72Q183.84-36.08 184.08-31.68L184.08-31.68L184.08-31.68Q185.28-33.28 186.80-34.84L186.80-34.84L186.80-34.84Q188.32-36.40 191.60-38.36L191.60-38.36L191.60-38.36Q194.88-40.32 198.52-40.32L198.52-40.32L198.52-40.32Q202.16-40.32 204.64-37.48L204.64-37.48L204.64-37.48Q207.12-34.64 207.12-29.76L207.12-29.76L206.64-20.80L207.52-1.60L196.72 0.40L197.68-20.24" fill="#93dbe9" stroke="none" stroke-width="none" transform="translate(-146.3599853515625,22.67287218960849)" style="fill: rgb(179, 183, 226);"></path></g><g class="path" style="transform: scale(0.91); transform-origin: 86.76px 10.8729px; animation: 1s linear -0.18s infinite normal forwards running breath-827549ea-05f5-4ce9-968d-a8e5578694eb;"><path d="M213.52 7.92L213.52 7.92L213.52 7.92Q213.52 0.88 226.64-3.12L226.64-3.12L226.64-3.12Q223.52-4.72 223.52-7.28L223.52-7.28L223.52-7.28Q223.52-8.32 224.32-9.36L224.32-9.36L224.32-9.36Q225.12-10.40 226.64-11.52L226.64-11.52L226.64-12.16L226.64-12.16Q220.88-12.16 217.48-15.36L217.48-15.36L217.48-15.36Q214.08-18.56 214.08-23.92L214.08-23.92L214.08-23.92Q214.08-30.88 219.76-36.04L219.76-36.04L219.76-36.04Q225.44-41.20 233.20-41.20L233.20-41.20L233.20-41.20Q235.20-41.20 239.04-40.40L239.04-40.40L239.04-40.40Q242.88-39.60 246.56-39.60L246.56-39.60L252.72-39.60L251.92-32.64L245.92-33.36L245.92-33.36Q246.72-31.04 246.72-28.08L246.72-28.08L246.72-28.08Q246.72-25.12 245.32-22.20L245.32-22.20L245.32-22.20Q243.92-19.28 241.96-17.52L241.96-17.52L241.96-17.52Q240-15.76 238.04-14.44L238.04-14.44L238.04-14.44Q236.08-13.12 234.68-12.12L234.68-12.12L234.68-12.12Q233.28-11.12 233.28-10.32L233.28-10.32L233.28-10.32Q233.28-8.80 236.48-7.68L236.48-7.68L236.48-7.68Q244.96-4.24 247.96-1.84L247.96-1.84L247.96-1.84Q250.96 0.56 250.96 4.08L250.96 4.08L250.96 4.08Q250.96 10 245 13.80L245 13.80L245 13.80Q239.04 17.60 230.80 17.60L230.80 17.60L230.80 17.60Q222.56 17.60 218.04 14.96L218.04 14.96L218.04 14.96Q213.52 12.32 213.52 7.92zM237.68-25.68L237.68-25.68L237.68-25.68Q237.68-29.60 235.92-31.44L235.92-31.44L235.92-31.44Q234.16-33.28 230.40-33.28L230.40-33.28L230.40-33.28Q223.12-33.28 223.12-26.12L223.12-26.12L223.12-26.12Q223.12-18.96 230.88-18.96L230.88-18.96L230.88-18.96Q237.68-18.96 237.68-25.68zM240.56 5.28L240.56 5.28L240.56 5.28Q240.56 3.84 239.04 2.60L239.04 2.60L239.04 2.60Q237.52 1.36 233.60-0.32L233.60-0.32L233.60-0.32Q227.76 1.28 225.56 2.64L225.56 2.64L225.56 2.64Q223.36 4 223.36 6L223.36 6L223.36 6Q223.36 8 225.56 9.24L225.56 9.24L225.56 9.24Q227.76 10.48 231.68 10.48L231.68 10.48L231.68 10.48Q235.60 10.48 238.08 9.04L238.08 9.04L238.08 9.04Q240.56 7.60 240.56 5.28" fill="#93dbe9" stroke="none" stroke-width="none" transform="translate(-146.3599853515625,22.67287218960849)" style="fill: rgb(147, 219, 233);"></path></g><g class="path" style="transform: scale(0.91); transform-origin: 114.16px 16.9929px; animation: 1s linear -0.12s infinite normal forwards running breath-827549ea-05f5-4ce9-968d-a8e5578694eb;"><path d="M254.72-5.36L254.72-5.36L254.72-5.36Q254.72-7.92 256.60-9.88L256.60-9.88L256.60-9.88Q258.48-11.84 261.12-11.84L261.12-11.84L261.12-11.84Q266.32-11.84 266.32-6.56L266.32-6.56L266.32-6.56Q266.32-3.52 264.44-1.52L264.44-1.52L264.44-1.52Q262.56 0.48 260.04 0.48L260.04 0.48L260.04 0.48Q257.52 0.48 256.12-1.16L256.12-1.16L256.12-1.16Q254.72-2.80 254.72-5.36" fill="#93dbe9" stroke="none" stroke-width="none" transform="translate(-146.3599853515625,22.67287218960849)" style="fill: rgb(104, 156, 197);"></path></g><g class="path" style="transform: scale(0.91); transform-origin: 130.56px 16.9929px; animation: 1s linear -0.06s infinite normal forwards running breath-827549ea-05f5-4ce9-968d-a8e5578694eb;"><path d="M271.12-5.36L271.12-5.36L271.12-5.36Q271.12-7.92 273.00-9.88L273.00-9.88L273.00-9.88Q274.88-11.84 277.52-11.84L277.52-11.84L277.52-11.84Q282.72-11.84 282.72-6.56L282.72-6.56L282.72-6.56Q282.72-3.52 280.84-1.52L280.84-1.52L280.84-1.52Q278.96 0.48 276.44 0.48L276.44 0.48L276.44 0.48Q273.92 0.48 272.52-1.16L272.52-1.16L272.52-1.16Q271.12-2.80 271.12-5.36" fill="#93dbe9" stroke="none" stroke-width="none" transform="translate(-146.3599853515625,22.67287218960849)" style="fill: rgb(94, 111, 163);"></path></g><g class="path" style="transform: scale(0.91); transform-origin: 146.96px 16.9929px; animation: 1s linear 0s infinite normal forwards running breath-827549ea-05f5-4ce9-968d-a8e5578694eb;"><path d="M287.52-5.36L287.52-5.36L287.52-5.36Q287.52-7.92 289.40-9.88L289.40-9.88L289.40-9.88Q291.28-11.84 293.92-11.84L293.92-11.84L293.92-11.84Q299.12-11.84 299.12-6.56L299.12-6.56L299.12-6.56Q299.12-3.52 297.24-1.52L297.24-1.52L297.24-1.52Q295.36 0.48 292.84 0.48L292.84 0.48L292.84 0.48Q290.32 0.48 288.92-1.16L288.92-1.16L288.92-1.16Q287.52-2.80 287.52-5.36" fill="#93dbe9" stroke="none" stroke-width="none" transform="translate(-146.3599853515625,22.67287218960849)" style="fill: rgb(59, 67, 104);"></path></g></g>
</g>
</g>
<style id="breath-827549ea-05f5-4ce9-968d-a8e5578694eb" data-anikit="">@keyframes breath-827549ea-05f5-4ce9-968d-a8e5578694eb
{
  0% {
    animation-timing-function: cubic-bezier(0.9647,0.2413,-0.0705,0.7911);
    transform: scale(0.9099999999999999);
  }
  51% {
    animation-timing-function: cubic-bezier(0.9226,0.2631,-0.0308,0.7628);
    transform: scale(1.02994);
  }
  100% {
    transform: scale(0.9099999999999999);
  }
}</style></svg>